<?xml version="1.0" encoding="UTF-8" standalone="no"?>
<!DOCTYPE svg PUBLIC "-//W3C//DTD SVG 1.1//EN"
 "http://www.w3.org/Graphics/SVG/1.1/DTD/svg11.dtd">
<!-- Generated by graphviz version 2.40.1 (20161225.0304)
 -->
<!-- Title: dependencies Pages: 1 -->
<svg width="4327pt" height="284pt"
 viewBox="0.00 0.00 4327.00 284.00" xmlns="http://www.w3.org/2000/svg" xmlns:xlink="http://www.w3.org/1999/xlink">
<g id="graph0" class="graph" transform="scale(1 1) rotate(0) translate(4 280)">
<title>dependencies</title>
<polygon fill="#ffffff" stroke="transparent" points="-4,4 -4,-280 4323,-280 4323,4 -4,4"/>
<text text-anchor="start" x="2138.5091" y="-42.4" font-family="sans-serif" font-weight="bold" font-size="14.00" fill="#000000">Legend</text>
<polygon fill="#ffffb3" stroke="transparent" points="1925.5,-10 1925.5,-30 1945.5,-30 1945.5,-10 1925.5,-10"/>
<text text-anchor="start" x="1949.129" y="-15.4" font-family="sans-serif" font-size="14.00" fill="#000000"> &#160;Declarations</text>
<polygon fill="#8dd3c7" stroke="transparent" points="2038.5,-10 2038.5,-30 2058.5,-30 2058.5,-10 2038.5,-10"/>
<text text-anchor="start" x="2062.2251" y="-15.4" font-family="sans-serif" font-size="14.00" fill="#000000"> &#160;Module</text>
<polygon fill="#80b1d3" stroke="transparent" points="2124.5,-10 2124.5,-30 2144.5,-30 2144.5,-10 2124.5,-10"/>
<text text-anchor="start" x="2148.2812" y="-15.4" font-family="sans-serif" font-size="14.00" fill="#000000"> &#160;Bootstrap</text>
<polygon fill="#fdb462" stroke="transparent" points="2221.5,-10 2221.5,-30 2241.5,-30 2241.5,-10 2221.5,-10"/>
<text text-anchor="start" x="2245.1732" y="-15.4" font-family="sans-serif" font-size="14.00" fill="#000000"> &#160;Providers</text>
<polygon fill="#fb8072" stroke="transparent" points="2317.5,-10 2317.5,-30 2337.5,-30 2337.5,-10 2317.5,-10"/>
<text text-anchor="start" x="2341.2258" y="-15.4" font-family="sans-serif" font-size="14.00" fill="#000000"> &#160;Exports</text>
<g id="clust1" class="cluster">
<title>cluster_AppModule</title>
<polygon fill="none" stroke="#000000" stroke-dasharray="1,5" points="8,-70 8,-268 4311,-268 4311,-70 8,-70"/>
</g>
<g id="clust2" class="cluster">
<title>cluster_AppModule_declarations</title>
<polygon fill="none" stroke="#000000" points="3076,-78 3076,-130 4303,-130 4303,-78 3076,-78"/>
</g>
<g id="clust11" class="cluster">
<title>cluster_AppModule_imports</title>
<polygon fill="none" stroke="#000000" points="678,-78 678,-130 3068,-130 3068,-78 678,-78"/>
</g>
<g id="clust13" class="cluster">
<title>cluster_AppModule_bootstrap</title>
<polygon fill="none" stroke="#000000" points="2173,-208 2173,-260 2297,-260 2297,-208 2173,-208"/>
</g>
<g id="clust14" class="cluster">
<title>cluster_AppModule_providers</title>
<polygon fill="none" stroke="#000000" points="16,-78 16,-130 670,-130 670,-78 16,-78"/>
</g>
<!-- AppComponent -->
<g id="node1" class="node">
<title>AppComponent</title>
<polygon fill="#ffffb3" stroke="#000000" points="4294.9399,-122 4189.0601,-122 4189.0601,-86 4294.9399,-86 4294.9399,-122"/>
<text text-anchor="middle" x="4242" y="-99.8" font-family="Times,serif" font-size="14.00" fill="#000000">AppComponent</text>
</g>
<!-- AppModule -->
<g id="node9" class="node">
<title>AppModule</title>
<polygon fill="#8dd3c7" stroke="#000000" points="2276.6571,-187 2273.6571,-191 2252.6571,-191 2249.6571,-187 2193.3429,-187 2193.3429,-151 2276.6571,-151 2276.6571,-187"/>
<text text-anchor="middle" x="2235" y="-164.8" font-family="Times,serif" font-size="14.00" fill="#000000">AppModule</text>
</g>
<!-- AppComponent&#45;&gt;AppModule -->
<g id="edge1" class="edge">
<title>AppComponent&#45;&gt;AppModule</title>
<path fill="none" stroke="#000000" d="M4242,-122.3802C4242,-146.2785 4242,-185 4242,-185 4242,-185 2286.919,-185 2286.919,-185"/>
<polygon fill="#000000" stroke="#000000" points="2286.9191,-181.5001 2276.919,-185 2286.919,-188.5001 2286.9191,-181.5001"/>
</g>
<!-- LoginComponent -->
<g id="node2" class="node">
<title>LoginComponent</title>
<ellipse fill="#ffffb3" stroke="#000000" cx="4092" cy="-104" rx="79.3406" ry="18"/>
<text text-anchor="middle" x="4092" y="-99.8" font-family="Times,serif" font-size="14.00" fill="#000000">LoginComponent</text>
</g>
<!-- LoginComponent&#45;&gt;AppModule -->
<g id="edge2" class="edge">
<title>LoginComponent&#45;&gt;AppModule</title>
<path fill="none" stroke="#000000" d="M4065.61,-121.0888C4065.61,-143.7736 4065.61,-181 4065.61,-181 4065.61,-181 2286.6743,-181 2286.6743,-181"/>
<polygon fill="#000000" stroke="#000000" points="2286.6744,-177.5001 2276.6743,-181 2286.6743,-184.5001 2286.6744,-177.5001"/>
</g>
<!-- LoginComponent&#45;&gt;AppModule -->
<g id="edge32" class="edge">
<title>LoginComponent&#45;&gt;AppModule</title>
<path fill="none" stroke="#000000" d="M4118.39,-121.1418C4118.39,-144.3764 4118.39,-183 4118.39,-183 4118.39,-183 2286.9779,-183 2286.9779,-183"/>
<polygon fill="#000000" stroke="#000000" points="2286.978,-179.5001 2276.9779,-183 2286.9779,-186.5001 2286.978,-179.5001"/>
</g>
<!-- DashboardComponent -->
<g id="node3" class="node">
<title>DashboardComponent</title>
<ellipse fill="#ffffb3" stroke="#000000" cx="3897" cy="-104" rx="97.8614" ry="18"/>
<text text-anchor="middle" x="3897" y="-99.8" font-family="Times,serif" font-size="14.00" fill="#000000">DashboardComponent</text>
</g>
<!-- DashboardComponent&#45;&gt;AppModule -->
<g id="edge3" class="edge">
<title>DashboardComponent&#45;&gt;AppModule</title>
<path fill="none" stroke="#000000" d="M3864.3564,-121.063C3864.3564,-142.3544 3864.3564,-176 3864.3564,-176 3864.3564,-176 2286.9138,-176 2286.9138,-176"/>
<polygon fill="#000000" stroke="#000000" points="2286.9139,-172.5001 2276.9138,-176 2286.9138,-179.5001 2286.9139,-172.5001"/>
</g>
<!-- DashboardComponent&#45;&gt;AppModule -->
<g id="edge33" class="edge">
<title>DashboardComponent&#45;&gt;AppModule</title>
<path fill="none" stroke="#000000" d="M3929.6436,-121.1631C3929.6436,-143.0234 3929.6436,-178 3929.6436,-178 3929.6436,-178 2286.8903,-178 2286.8903,-178"/>
<polygon fill="#000000" stroke="#000000" points="2286.8903,-174.5001 2276.8903,-178 2286.8903,-181.5001 2286.8903,-174.5001"/>
</g>
<!-- QuestionComponent -->
<g id="node4" class="node">
<title>QuestionComponent</title>
<polygon fill="#ffffb3" stroke="#000000" points="3780.8795,-122 3649.1205,-122 3649.1205,-86 3780.8795,-86 3780.8795,-122"/>
<text text-anchor="middle" x="3715" y="-99.8" font-family="Times,serif" font-size="14.00" fill="#000000">QuestionComponent</text>
</g>
<!-- QuestionComponent&#45;&gt;AppModule -->
<g id="edge4" class="edge">
<title>QuestionComponent&#45;&gt;AppModule</title>
<path fill="none" stroke="#000000" d="M3715,-122.0267C3715,-142.7672 3715,-174 3715,-174 3715,-174 2286.9095,-174 2286.9095,-174"/>
<polygon fill="#000000" stroke="#000000" points="2286.9095,-170.5001 2276.9095,-174 2286.9095,-177.5001 2286.9095,-170.5001"/>
</g>
<!-- NavbarComponent -->
<g id="node5" class="node">
<title>NavbarComponent</title>
<polygon fill="#ffffb3" stroke="#000000" points="3631.0297,-122 3508.9703,-122 3508.9703,-86 3631.0297,-86 3631.0297,-122"/>
<text text-anchor="middle" x="3570" y="-99.8" font-family="Times,serif" font-size="14.00" fill="#000000">NavbarComponent</text>
</g>
<!-- NavbarComponent&#45;&gt;AppModule -->
<g id="edge5" class="edge">
<title>NavbarComponent&#45;&gt;AppModule</title>
<path fill="none" stroke="#000000" d="M3570,-122.2228C3570,-142.3652 3570,-172 3570,-172 3570,-172 2286.7876,-172 2286.7876,-172"/>
<polygon fill="#000000" stroke="#000000" points="2286.7876,-168.5001 2276.7876,-172 2286.7875,-175.5001 2286.7876,-168.5001"/>
</g>
<!-- OwnQuestionComponent -->
<g id="node6" class="node">
<title>OwnQuestionComponent</title>
<polygon fill="#ffffb3" stroke="#000000" points="3490.5926,-122 3331.4074,-122 3331.4074,-86 3490.5926,-86 3490.5926,-122"/>
<text text-anchor="middle" x="3411" y="-99.8" font-family="Times,serif" font-size="14.00" fill="#000000">OwnQuestionComponent</text>
</g>
<!-- OwnQuestionComponent&#45;&gt;AppModule -->
<g id="edge6" class="edge">
<title>OwnQuestionComponent&#45;&gt;AppModule</title>
<path fill="none" stroke="#000000" d="M3411,-122.1061C3411,-141.3391 3411,-169 3411,-169 3411,-169 2286.8545,-169 2286.8545,-169"/>
<polygon fill="#000000" stroke="#000000" points="2286.8545,-165.5001 2276.8545,-169 2286.8544,-172.5001 2286.8545,-165.5001"/>
</g>
<!-- DialogComponent -->
<g id="node7" class="node">
<title>DialogComponent</title>
<polygon fill="#ffffb3" stroke="#000000" points="3313.9356,-122 3194.0644,-122 3194.0644,-86 3313.9356,-86 3313.9356,-122"/>
<text text-anchor="middle" x="3254" y="-99.8" font-family="Times,serif" font-size="14.00" fill="#000000">DialogComponent</text>
</g>
<!-- DialogComponent&#45;&gt;AppModule -->
<g id="edge7" class="edge">
<title>DialogComponent&#45;&gt;AppModule</title>
<path fill="none" stroke="#000000" d="M3254,-122.2222C3254,-140.8285 3254,-167 3254,-167 3254,-167 2286.8457,-167 2286.8457,-167"/>
<polygon fill="#000000" stroke="#000000" points="2286.8458,-163.5001 2276.8457,-167 2286.8457,-170.5001 2286.8458,-163.5001"/>
</g>
<!-- TranslatePipe -->
<g id="node8" class="node">
<title>TranslatePipe</title>
<polygon fill="#ffffb3" stroke="#000000" points="3176.4706,-122 3083.5294,-122 3083.5294,-86 3176.4706,-86 3176.4706,-122"/>
<text text-anchor="middle" x="3130" y="-99.8" font-family="Times,serif" font-size="14.00" fill="#000000">TranslatePipe</text>
</g>
<!-- TranslatePipe&#45;&gt;AppModule -->
<g id="edge8" class="edge">
<title>TranslatePipe&#45;&gt;AppModule</title>
<path fill="none" stroke="#000000" d="M3130,-122.302C3130,-140.2699 3130,-165 3130,-165 3130,-165 2286.6695,-165 2286.6695,-165"/>
<polygon fill="#000000" stroke="#000000" points="2286.6696,-161.5001 2276.6695,-165 2286.6695,-168.5001 2286.6696,-161.5001"/>
</g>
<!-- AppComponent  -->
<g id="node27" class="node">
<title>AppComponent </title>
<polygon fill="#80b1d3" stroke="#000000" points="2289.439,-252 2180.561,-252 2180.561,-216 2289.439,-216 2289.439,-252"/>
<text text-anchor="middle" x="2235" y="-229.8" font-family="Times,serif" font-size="14.00" fill="#000000">AppComponent </text>
</g>
<!-- AppModule&#45;&gt;AppComponent  -->
<g id="edge27" class="edge">
<title>AppModule&#45;&gt;AppComponent </title>
<path fill="none" stroke="#000000" stroke-dasharray="1,5" d="M2235,-187.1061C2235,-187.1061 2235,-205.991 2235,-205.991"/>
<polygon fill="#000000" stroke="#000000" points="2231.5001,-205.9909 2235,-215.991 2238.5001,-205.991 2231.5001,-205.9909"/>
</g>
<!-- MatButtonModule -->
<g id="node10" class="node">
<title>MatButtonModule</title>
<polygon fill="#8dd3c7" stroke="#000000" points="3060.2176,-122 3057.2176,-126 3036.2176,-126 3033.2176,-122 2939.7824,-122 2939.7824,-86 3060.2176,-86 3060.2176,-122"/>
<text text-anchor="middle" x="3000" y="-99.8" font-family="Times,serif" font-size="14.00" fill="#000000">MatButtonModule</text>
</g>
<!-- MatButtonModule&#45;&gt;AppModule -->
<g id="edge9" class="edge">
<title>MatButtonModule&#45;&gt;AppModule</title>
<path fill="none" stroke="#000000" d="M3000,-122.0225C3000,-139.3734 3000,-163 3000,-163 3000,-163 2286.673,-163 2286.673,-163"/>
<polygon fill="#000000" stroke="#000000" points="2286.673,-159.5001 2276.673,-163 2286.673,-166.5001 2286.673,-159.5001"/>
</g>
<!-- MatCheckboxModule -->
<g id="node11" class="node">
<title>MatCheckboxModule</title>
<polygon fill="#8dd3c7" stroke="#000000" points="2921.3655,-122 2918.3655,-126 2897.3655,-126 2894.3655,-122 2782.6345,-122 2782.6345,-86 2921.3655,-86 2921.3655,-122"/>
<text text-anchor="middle" x="2852" y="-99.8" font-family="Times,serif" font-size="14.00" fill="#000000">MatCheckboxModule</text>
</g>
<!-- MatCheckboxModule&#45;&gt;AppModule -->
<g id="edge10" class="edge">
<title>MatCheckboxModule&#45;&gt;AppModule</title>
<path fill="none" stroke="#000000" d="M2852,-122.027C2852,-138.3976 2852,-160 2852,-160 2852,-160 2286.9238,-160 2286.9238,-160"/>
<polygon fill="#000000" stroke="#000000" points="2286.9239,-156.5001 2276.9238,-160 2286.9238,-163.5001 2286.9239,-156.5001"/>
</g>
<!-- MatSelectModule -->
<g id="node12" class="node">
<title>MatSelectModule</title>
<polygon fill="#8dd3c7" stroke="#000000" points="2764.3076,-122 2761.3076,-126 2740.3076,-126 2737.3076,-122 2647.6924,-122 2647.6924,-86 2764.3076,-86 2764.3076,-122"/>
<text text-anchor="middle" x="2706" y="-99.8" font-family="Times,serif" font-size="14.00" fill="#000000">MatSelectModule</text>
</g>
<!-- MatSelectModule&#45;&gt;AppModule -->
<g id="edge11" class="edge">
<title>MatSelectModule&#45;&gt;AppModule</title>
<path fill="none" stroke="#000000" d="M2706,-122.2819C2706,-137.9478 2706,-158 2706,-158 2706,-158 2286.7981,-158 2286.7981,-158"/>
<polygon fill="#000000" stroke="#000000" points="2286.7981,-154.5001 2276.7981,-158 2286.7981,-161.5001 2286.7981,-154.5001"/>
</g>
<!-- MatIconModule -->
<g id="node13" class="node">
<title>MatIconModule</title>
<polygon fill="#8dd3c7" stroke="#000000" points="2629.4748,-122 2626.4748,-126 2605.4748,-126 2602.4748,-122 2522.5252,-122 2522.5252,-86 2629.4748,-86 2629.4748,-122"/>
<text text-anchor="middle" x="2576" y="-99.8" font-family="Times,serif" font-size="14.00" fill="#000000">MatIconModule</text>
</g>
<!-- MatIconModule&#45;&gt;AppModule -->
<g id="edge12" class="edge">
<title>MatIconModule&#45;&gt;AppModule</title>
<path fill="none" stroke="#000000" d="M2576,-122.1871C2576,-137.1824 2576,-156 2576,-156 2576,-156 2286.8133,-156 2286.8133,-156"/>
<polygon fill="#000000" stroke="#000000" points="2286.8133,-152.5001 2276.8133,-156 2286.8133,-159.5001 2286.8133,-152.5001"/>
</g>
<!-- MatMenuModule -->
<g id="node14" class="node">
<title>MatMenuModule</title>
<polygon fill="#8dd3c7" stroke="#000000" points="2504.2591,-122 2501.2591,-126 2480.2591,-126 2477.2591,-122 2389.7409,-122 2389.7409,-86 2504.2591,-86 2504.2591,-122"/>
<text text-anchor="middle" x="2447" y="-99.8" font-family="Times,serif" font-size="14.00" fill="#000000">MatMenuModule</text>
</g>
<!-- MatMenuModule&#45;&gt;AppModule -->
<g id="edge13" class="edge">
<title>MatMenuModule&#45;&gt;AppModule</title>
<path fill="none" stroke="#000000" d="M2447,-122.0511C2447,-136.373 2447,-154 2447,-154 2447,-154 2286.8844,-154 2286.8844,-154"/>
<polygon fill="#000000" stroke="#000000" points="2286.8844,-150.5001 2276.8844,-154 2286.8843,-157.5001 2286.8844,-150.5001"/>
</g>
<!-- MatToolbarModule -->
<g id="node15" class="node">
<title>MatToolbarModule</title>
<polygon fill="#8dd3c7" stroke="#000000" points="2371.4187,-122 2368.4187,-126 2347.4187,-126 2344.4187,-122 2244.5813,-122 2244.5813,-86 2371.4187,-86 2371.4187,-122"/>
<text text-anchor="middle" x="2308" y="-99.8" font-family="Times,serif" font-size="14.00" fill="#000000">MatToolbarModule</text>
</g>
<!-- MatToolbarModule&#45;&gt;AppModule -->
<g id="edge14" class="edge">
<title>MatToolbarModule&#45;&gt;AppModule</title>
<path fill="none" stroke="#000000" d="M2260.8096,-122.1061C2260.8096,-122.1061 2260.8096,-140.991 2260.8096,-140.991"/>
<polygon fill="#000000" stroke="#000000" points="2257.3097,-140.9909 2260.8096,-150.991 2264.3097,-140.991 2257.3097,-140.9909"/>
</g>
<!-- MatSidenavModule -->
<g id="node16" class="node">
<title>MatSidenavModule</title>
<polygon fill="#8dd3c7" stroke="#000000" points="2226.7022,-122 2223.7022,-126 2202.7022,-126 2199.7022,-122 2099.2978,-122 2099.2978,-86 2226.7022,-86 2226.7022,-122"/>
<text text-anchor="middle" x="2163" y="-99.8" font-family="Times,serif" font-size="14.00" fill="#000000">MatSidenavModule</text>
</g>
<!-- MatSidenavModule&#45;&gt;AppModule -->
<g id="edge15" class="edge">
<title>MatSidenavModule&#45;&gt;AppModule</title>
<path fill="none" stroke="#000000" d="M2209.8864,-122.1061C2209.8864,-122.1061 2209.8864,-140.991 2209.8864,-140.991"/>
<polygon fill="#000000" stroke="#000000" points="2206.3865,-140.9909 2209.8864,-150.991 2213.3865,-140.991 2206.3865,-140.9909"/>
</g>
<!-- MatListModule -->
<g id="node17" class="node">
<title>MatListModule</title>
<polygon fill="#8dd3c7" stroke="#000000" points="2080.8781,-122 2077.8781,-126 2056.8781,-126 2053.8781,-122 1977.1219,-122 1977.1219,-86 2080.8781,-86 2080.8781,-122"/>
<text text-anchor="middle" x="2029" y="-99.8" font-family="Times,serif" font-size="14.00" fill="#000000">MatListModule</text>
</g>
<!-- MatListModule&#45;&gt;AppModule -->
<g id="edge16" class="edge">
<title>MatListModule&#45;&gt;AppModule</title>
<path fill="none" stroke="#000000" d="M2046.313,-122.0511C2046.313,-136.373 2046.313,-154 2046.313,-154 2046.313,-154 2183.1242,-154 2183.1242,-154"/>
<polygon fill="#000000" stroke="#000000" points="2183.1243,-157.5001 2193.1242,-154 2183.1242,-150.5001 2183.1243,-157.5001"/>
</g>
<!-- MatListModule&#45;&gt;AppModule -->
<g id="edge25" class="edge">
<title>MatListModule&#45;&gt;AppModule</title>
<path fill="none" stroke="#000000" d="M2011.687,-122.1871C2011.687,-137.1824 2011.687,-156 2011.687,-156 2011.687,-156 2183.2585,-156 2183.2585,-156"/>
<polygon fill="#000000" stroke="#000000" points="2183.2585,-159.5001 2193.2585,-156 2183.2585,-152.5001 2183.2585,-159.5001"/>
</g>
<!-- FlexLayoutModule -->
<g id="node18" class="node">
<title>FlexLayoutModule</title>
<polygon fill="#8dd3c7" stroke="#000000" points="1959.0954,-122 1956.0954,-126 1935.0954,-126 1932.0954,-122 1834.9046,-122 1834.9046,-86 1959.0954,-86 1959.0954,-122"/>
<text text-anchor="middle" x="1897" y="-99.8" font-family="Times,serif" font-size="14.00" fill="#000000">FlexLayoutModule</text>
</g>
<!-- FlexLayoutModule&#45;&gt;AppModule -->
<g id="edge17" class="edge">
<title>FlexLayoutModule&#45;&gt;AppModule</title>
<path fill="none" stroke="#000000" d="M1897,-122.2819C1897,-137.9478 1897,-158 1897,-158 1897,-158 2183.2156,-158 2183.2156,-158"/>
<polygon fill="#000000" stroke="#000000" points="2183.2156,-161.5001 2193.2156,-158 2183.2155,-154.5001 2183.2156,-161.5001"/>
</g>
<!-- BrowserModule -->
<g id="node19" class="node">
<title>BrowserModule</title>
<polygon fill="#8dd3c7" stroke="#000000" points="1816.4734,-122 1813.4734,-126 1792.4734,-126 1789.4734,-122 1709.5266,-122 1709.5266,-86 1816.4734,-86 1816.4734,-122"/>
<text text-anchor="middle" x="1763" y="-99.8" font-family="Times,serif" font-size="14.00" fill="#000000">BrowserModule</text>
</g>
<!-- BrowserModule&#45;&gt;AppModule -->
<g id="edge18" class="edge">
<title>BrowserModule&#45;&gt;AppModule</title>
<path fill="none" stroke="#000000" d="M1763,-122.027C1763,-138.3976 1763,-160 1763,-160 1763,-160 2183.1131,-160 2183.1131,-160"/>
<polygon fill="#000000" stroke="#000000" points="2183.1132,-163.5001 2193.1131,-160 2183.1131,-156.5001 2183.1132,-163.5001"/>
</g>
<!-- FormsModule -->
<g id="node20" class="node">
<title>FormsModule</title>
<polygon fill="#8dd3c7" stroke="#000000" points="1691.8288,-122 1688.8288,-126 1667.8288,-126 1664.8288,-122 1596.1712,-122 1596.1712,-86 1691.8288,-86 1691.8288,-122"/>
<text text-anchor="middle" x="1644" y="-99.8" font-family="Times,serif" font-size="14.00" fill="#000000">FormsModule</text>
</g>
<!-- FormsModule&#45;&gt;AppModule -->
<g id="edge19" class="edge">
<title>FormsModule&#45;&gt;AppModule</title>
<path fill="none" stroke="#000000" d="M1644,-122.0225C1644,-139.3734 1644,-163 1644,-163 1644,-163 2182.9705,-163 2182.9705,-163"/>
<polygon fill="#000000" stroke="#000000" points="2182.9706,-166.5001 2192.9705,-163 2182.9705,-159.5001 2182.9706,-166.5001"/>
</g>
<!-- AppRoutingModule -->
<g id="node21" class="node">
<title>AppRoutingModule</title>
<polygon fill="#8dd3c7" stroke="#000000" points="1578.2744,-122 1575.2744,-126 1554.2744,-126 1551.2744,-122 1449.7256,-122 1449.7256,-86 1578.2744,-86 1578.2744,-122"/>
<text text-anchor="middle" x="1514" y="-99.8" font-family="Times,serif" font-size="14.00" fill="#000000">AppRoutingModule</text>
</g>
<!-- AppRoutingModule&#45;&gt;AppModule -->
<g id="edge20" class="edge">
<title>AppRoutingModule&#45;&gt;AppModule</title>
<path fill="none" stroke="#000000" d="M1514,-122.302C1514,-140.2699 1514,-165 1514,-165 1514,-165 2183.1196,-165 2183.1196,-165"/>
<polygon fill="#000000" stroke="#000000" points="2183.1196,-168.5001 2193.1196,-165 2183.1195,-161.5001 2183.1196,-168.5001"/>
</g>
<!-- NgbModule.forRoot() -->
<g id="node22" class="node">
<title>NgbModule.forRoot()</title>
<polygon fill="#8dd3c7" stroke="#000000" points="1432.026,-122 1429.026,-126 1408.026,-126 1405.026,-122 1291.974,-122 1291.974,-86 1432.026,-86 1432.026,-122"/>
<text text-anchor="middle" x="1362" y="-99.8" font-family="Times,serif" font-size="14.00" fill="#000000">NgbModule.forRoot()</text>
</g>
<!-- NgbModule.forRoot()&#45;&gt;AppModule -->
<g id="edge21" class="edge">
<title>NgbModule.forRoot()&#45;&gt;AppModule</title>
<path fill="none" stroke="#000000" d="M1362,-122.2222C1362,-140.8285 1362,-167 1362,-167 1362,-167 2183.1875,-167 2183.1875,-167"/>
<polygon fill="#000000" stroke="#000000" points="2183.1875,-170.5001 2193.1875,-167 2183.1875,-163.5001 2183.1875,-170.5001"/>
</g>
<!-- BrowserAnimationsModule -->
<g id="node23" class="node">
<title>BrowserAnimationsModule</title>
<polygon fill="#8dd3c7" stroke="#000000" points="1274.3019,-122 1271.3019,-126 1250.3019,-126 1247.3019,-122 1101.6981,-122 1101.6981,-86 1274.3019,-86 1274.3019,-122"/>
<text text-anchor="middle" x="1188" y="-99.8" font-family="Times,serif" font-size="14.00" fill="#000000">BrowserAnimationsModule</text>
</g>
<!-- BrowserAnimationsModule&#45;&gt;AppModule -->
<g id="edge22" class="edge">
<title>BrowserAnimationsModule&#45;&gt;AppModule</title>
<path fill="none" stroke="#000000" d="M1188,-122.1061C1188,-141.3391 1188,-169 1188,-169 1188,-169 2183.3103,-169 2183.3103,-169"/>
<polygon fill="#000000" stroke="#000000" points="2183.3103,-172.5001 2193.3103,-169 2183.3102,-165.5001 2183.3103,-172.5001"/>
</g>
<!-- MatInputModule -->
<g id="node24" class="node">
<title>MatInputModule</title>
<polygon fill="#8dd3c7" stroke="#000000" points="1083.6513,-122 1080.6513,-126 1059.6513,-126 1056.6513,-122 972.3487,-122 972.3487,-86 1083.6513,-86 1083.6513,-122"/>
<text text-anchor="middle" x="1028" y="-99.8" font-family="Times,serif" font-size="14.00" fill="#000000">MatInputModule</text>
</g>
<!-- MatInputModule&#45;&gt;AppModule -->
<g id="edge23" class="edge">
<title>MatInputModule&#45;&gt;AppModule</title>
<path fill="none" stroke="#000000" d="M1028,-122.2228C1028,-142.3652 1028,-172 1028,-172 1028,-172 2183.1018,-172 2183.1018,-172"/>
<polygon fill="#000000" stroke="#000000" points="2183.1018,-175.5001 2193.1018,-172 2183.1018,-168.5001 2183.1018,-175.5001"/>
</g>
<!-- MatGridListModule -->
<g id="node25" class="node">
<title>MatGridListModule</title>
<polygon fill="#8dd3c7" stroke="#000000" points="953.5366,-122 950.5366,-126 929.5366,-126 926.5366,-122 824.4634,-122 824.4634,-86 953.5366,-86 953.5366,-122"/>
<text text-anchor="middle" x="889" y="-99.8" font-family="Times,serif" font-size="14.00" fill="#000000">MatGridListModule</text>
</g>
<!-- MatGridListModule&#45;&gt;AppModule -->
<g id="edge24" class="edge">
<title>MatGridListModule&#45;&gt;AppModule</title>
<path fill="none" stroke="#000000" d="M889,-122.0267C889,-142.7672 889,-174 889,-174 889,-174 2183.2409,-174 2183.2409,-174"/>
<polygon fill="#000000" stroke="#000000" points="2183.241,-177.5001 2193.2409,-174 2183.2409,-170.5001 2183.241,-177.5001"/>
</g>
<!-- MatDialogModule -->
<g id="node26" class="node">
<title>MatDialogModule</title>
<polygon fill="#8dd3c7" stroke="#000000" points="806.2022,-122 803.2022,-126 782.2022,-126 779.2022,-122 685.7978,-122 685.7978,-86 806.2022,-86 806.2022,-122"/>
<text text-anchor="middle" x="746" y="-99.8" font-family="Times,serif" font-size="14.00" fill="#000000">MatDialogModule</text>
</g>
<!-- MatDialogModule&#45;&gt;AppModule -->
<g id="edge26" class="edge">
<title>MatDialogModule&#45;&gt;AppModule</title>
<path fill="none" stroke="#000000" d="M746,-122.1686C746,-143.498 746,-176 746,-176 746,-176 2183.2294,-176 2183.2294,-176"/>
<polygon fill="#000000" stroke="#000000" points="2183.2295,-179.5001 2193.2294,-176 2183.2294,-172.5001 2183.2295,-179.5001"/>
</g>
<!-- LoginService -->
<g id="node28" class="node">
<title>LoginService</title>
<ellipse fill="#fdb462" stroke="#000000" cx="599" cy="-104" rx="63.1209" ry="18"/>
<text text-anchor="middle" x="599" y="-99.8" font-family="Times,serif" font-size="14.00" fill="#000000">LoginService</text>
</g>
<!-- LoginService&#45;&gt;AppModule -->
<g id="edge28" class="edge">
<title>LoginService&#45;&gt;AppModule</title>
<path fill="none" stroke="#000000" d="M599,-122.2921C599,-144.2057 599,-178 599,-178 599,-178 2183.3291,-178 2183.3291,-178"/>
<polygon fill="#000000" stroke="#000000" points="2183.3292,-181.5001 2193.3291,-178 2183.3291,-174.5001 2183.3292,-181.5001"/>
</g>
<!-- AnswerService -->
<g id="node29" class="node">
<title>AnswerService</title>
<ellipse fill="#fdb462" stroke="#000000" cx="448" cy="-104" rx="70.0403" ry="18"/>
<text text-anchor="middle" x="448" y="-99.8" font-family="Times,serif" font-size="14.00" fill="#000000">AnswerService</text>
</g>
<!-- AnswerService&#45;&gt;AppModule -->
<g id="edge29" class="edge">
<title>AnswerService&#45;&gt;AppModule</title>
<path fill="none" stroke="#000000" d="M448,-122.2479C448,-145.0179 448,-181 448,-181 448,-181 2183.0247,-181 2183.0247,-181"/>
<polygon fill="#000000" stroke="#000000" points="2183.0247,-184.5001 2193.0247,-181 2183.0247,-177.5001 2183.0247,-184.5001"/>
</g>
<!-- QuestionService -->
<g id="node30" class="node">
<title>QuestionService</title>
<ellipse fill="#fdb462" stroke="#000000" cx="285" cy="-104" rx="74.7168" ry="18"/>
<text text-anchor="middle" x="285" y="-99.8" font-family="Times,serif" font-size="14.00" fill="#000000">QuestionService</text>
</g>
<!-- QuestionService&#45;&gt;AppModule -->
<g id="edge30" class="edge">
<title>QuestionService&#45;&gt;AppModule</title>
<path fill="none" stroke="#000000" d="M285,-122.3228C285,-145.6602 285,-183 285,-183 285,-183 2182.9148,-183 2182.9148,-183"/>
<polygon fill="#000000" stroke="#000000" points="2182.9148,-186.5001 2192.9148,-183 2182.9148,-179.5001 2182.9148,-186.5001"/>
</g>
<!-- TranslationService -->
<g id="node31" class="node">
<title>TranslationService</title>
<ellipse fill="#fdb462" stroke="#000000" cx="108" cy="-104" rx="83.9431" ry="18"/>
<text text-anchor="middle" x="108" y="-99.8" font-family="Times,serif" font-size="14.00" fill="#000000">TranslationService</text>
</g>
<!-- TranslationService&#45;&gt;AppModule -->
<g id="edge31" class="edge">
<title>TranslationService&#45;&gt;AppModule</title>
<path fill="none" stroke="#000000" d="M108,-122.3802C108,-146.2785 108,-185 108,-185 108,-185 2182.9905,-185 2182.9905,-185"/>
<polygon fill="#000000" stroke="#000000" points="2182.9905,-188.5001 2192.9905,-185 2182.9905,-181.5001 2182.9905,-188.5001"/>
</g>
</g>
</svg>
